<?xml version="1.0" standalone="no"?>
<!DOCTYPE svg PUBLIC "-//W3C//DTD SVG 20010904//EN"
 "http://www.w3.org/TR/2001/REC-SVG-20010904/DTD/svg10.dtd">
<svg version="1.0" xmlns="http://www.w3.org/2000/svg"
 width="200.000000pt" height="96.000000pt" viewBox="0 0 200.000000 96.000000"
 preserveAspectRatio="xMidYMid meet">
<metadata>
Created by potrace 1.10, written by Peter Selinger 2001-2011
</metadata>
<g transform="translate(0.000000,96.000000) scale(0.100000,-0.100000)"
fill="#000000" stroke="none">
<path d="M40 480 l0 -440 925 0 925 0 0 30 0 30 -895 0 -895 0 0 380 0 380
895 0 895 0 0 30 0 30 -925 0 -925 0 0 -440z"/>
<path d="M1910 911 c0 -6 5 -13 10 -16 16 -10 12 -45 -5 -45 -13 0 -15 -48
-15 -370 0 -322 2 -370 15 -370 18 0 20 -31 3 -48 -8 -8 -9 -12 -1 -12 6 0 18
-3 27 -6 14 -6 16 37 16 435 l0 441 -25 0 c-14 0 -25 -4 -25 -9z"/>
<path d="M470 500 c0 -136 2 -150 18 -150 15 0 17 14 17 150 0 136 -2 150 -17
150 -16 0 -18 -14 -18 -150z"/>
<path d="M190 495 l0 -145 90 0 c77 0 93 3 110 20 28 28 28 103 0 123 -18 13
-19 16 -5 27 21 18 19 83 -3 103 -14 13 -39 17 -105 17 l-87 0 0 -145z m176
90 c4 -8 3 -26 0 -40 -6 -24 -10 -25 -76 -25 l-70 0 0 40 0 40 70 0 c54 0 72
-4 76 -15z m10 -132 c12 -45 -5 -58 -85 -61 l-71 -3 0 46 0 45 75 0 c72 0 75
-1 81 -27z"/>
<path d="M1270 620 c0 -15 7 -20 25 -20 18 0 25 5 25 20 0 15 -7 20 -25 20
-18 0 -25 -5 -25 -20z"/>
<path d="M583 548 c-4 -7 -8 -48 -10 -90 -2 -101 4 -108 103 -108 67 0 74 2
74 20 0 18 -7 20 -70 20 -68 0 -70 1 -70 25 0 24 2 25 70 25 l70 0 0 48 c0 26
-5 53 -12 60 -16 16 -144 16 -155 0z m137 -48 c0 -18 -7 -20 -55 -20 -48 0
-55 2 -55 20 0 18 7 20 55 20 48 0 55 -2 55 -20z"/>
<path d="M820 541 c-15 -29 -12 -67 6 -85 10 -11 34 -16 70 -16 51 0 54 -1 54
-25 0 -24 -2 -25 -70 -25 -63 0 -70 -2 -70 -20 0 -18 7 -20 73 -20 39 0 78 4
86 9 19 12 19 100 0 112 -8 5 -38 9 -66 9 -46 0 -53 3 -53 20 0 18 7 20 65 20
58 0 65 2 65 20 0 18 -7 20 -75 20 -63 0 -76 -3 -85 -19z"/>
<path d="M1052 548 c-15 -15 -16 -63 -2 -89 9 -15 22 -19 70 -19 57 0 60 -1
60 -25 0 -24 -2 -25 -70 -25 -63 0 -70 -2 -70 -20 0 -18 7 -20 73 -20 43 0 78
5 85 12 7 7 12 30 12 53 0 54 -13 65 -77 65 -46 0 -53 3 -53 20 0 18 7 20 65
20 58 0 65 2 65 20 0 18 -7 20 -73 20 -43 0 -78 -5 -85 -12z"/>
<path d="M1275 455 c0 -98 1 -105 20 -105 19 0 20 7 20 105 0 98 -1 105 -20
105 -19 0 -20 -7 -20 -105z"/>
<path d="M1380 455 c0 -98 1 -105 20 -105 18 0 20 7 20 85 l0 85 55 0 55 0 0
-85 c0 -78 2 -85 20 -85 19 0 20 7 20 93 0 59 -4 97 -12 105 -20 20 -115 15
-127 -5 -10 -17 -10 -17 -11 0 0 10 -8 17 -20 17 -19 0 -20 -7 -20 -105z"/>
<path d="M1640 541 c-5 -11 -10 -49 -10 -85 0 -84 11 -96 93 -96 l62 0 0 -30
0 -30 -62 0 c-56 0 -63 -2 -63 -20 0 -18 7 -20 68 -20 40 0 73 5 80 12 8 8 12
56 12 150 0 131 -1 138 -20 138 -11 0 -20 -5 -20 -12 0 -9 -3 -9 -12 0 -7 7
-36 12 -65 12 -41 0 -54 -4 -63 -19z m145 -81 l0 -60 -57 0 -58 0 0 60 0 60
58 0 57 0 0 -60z"/>
</g>
</svg>
